<svg version="1.1" xmlns="http://www.w3.org/2000/svg" xmlns:xlink="http://www.w3.org/1999/xlink" width="995" height="812"><defs/><g><g transform="translate(-158,-222) scale(1,1)"><rect fill="#C0C0C0" stroke="none" x="335" y="239" width="815" height="792" opacity="0.2"/></g><g transform="translate(-158,-222) scale(1,1)"><rect fill="#ffffff" stroke="none" x="328" y="232" width="815" height="792"/></g><g transform="translate(-158,-222) scale(1,1)"><path fill="none" stroke="#000000" d="M 328 232 L 1143 232 L 1143 1024 L 328 1024 L 328 232 Z Z" stroke-miterlimit="10"/></g><g transform="translate(-158,-222) scale(1,1)"><g><path fill="none" stroke="none"/><text fill="#000000" stroke="none" font-family="Arial" font-size="13px" font-style="normal" font-weight="bold" text-decoration="none" x="708.405029296875" y="251.5">Flop Flop</text></g></g><g transform="translate(-158,-222) scale(1,1)"><path fill="#ffffff" stroke="none" d="M 186.1592727272727 579.37 C 186.1592727272727 569.224528224 194.14683750632727 561 204 561 C 213.85316249367273 561 221.8407272727273 569.224528224 221.8407272727273 579.37 C 221.8407272727273 589.515471776 213.85316249367273 597.74 204 597.74 C 194.14683750632727 597.74 186.1592727272727 589.515471776 186.1592727272727 579.37 Z"/></g><g transform="translate(-158,-222) scale(1,1)"><path fill="none" stroke="#000000" d="M 186.1592727272727 579.37 C 186.1592727272727 569.224528224 194.14683750632727 561 204 561 C 213.85316249367273 561 221.8407272727273 569.224528224 221.8407272727273 579.37 C 221.8407272727273 589.515471776 213.85316249367273 597.74 204 597.74 C 194.14683750632727 597.74 186.1592727272727 589.515471776 186.1592727272727 579.37 Z" stroke-miterlimit="10"/></g><g transform="translate(-158,-222) scale(1,1)"><path fill="none" stroke="#000000" d="M 204 597.74 L 204 633.26" stroke-miterlimit="10"/></g><g transform="translate(-158,-222) scale(1,1)"><path fill="none" stroke="#000000" d="M 185.10981818181818 611.06 L 222.89018181818182 611.06" stroke-miterlimit="10"/></g><g transform="translate(-158,-222) scale(1,1)"><path fill="none" stroke="#000000" d="M 204 633.26 L 177.76363636363635 670" stroke-miterlimit="10"/></g><g transform="translate(-158,-222) scale(1,1)"><path fill="none" stroke="#000000" d="M 204 633.26 L 230.23636363636365 670" stroke-miterlimit="10"/></g><g transform="translate(-158,-222) scale(1,1)"><g><path fill="none" stroke="none"/><text fill="#000000" stroke="none" font-family="Arial" font-size="13px" font-style="normal" font-weight="bold" text-decoration="none" x="184.12548828125" y="690.5">Joueur</text></g></g><g transform="translate(-158,-222) scale(1,1)"><path fill="#C0C0C0" stroke="none" d="M 511 443 C 511 423.1177472 555.77152 407 611 407 C 666.22848 407 711 423.1177472 711 443 C 711 462.8822528 666.22848 479 611 479 C 555.77152 479 511 462.8822528 511 443 Z" opacity="0.2"/></g><g transform="translate(-158,-222) scale(1,1)"><path fill="#ffffff" stroke="none" d="M 504 436 C 504 416.1177472 548.77152 400 604 400 C 659.22848 400 704 416.1177472 704 436 C 704 455.8822528 659.22848 472 604 472 C 548.77152 472 504 455.8822528 504 436 Z"/></g><g transform="translate(-158,-222) scale(1,1)"><path fill="none" stroke="#000000" d="M 504 436 C 504 416.1177472 548.77152 400 604 400 C 659.22848 400 704 416.1177472 704 436 C 704 455.8822528 659.22848 472 604 472 C 548.77152 472 504 455.8822528 504 436 Z" stroke-miterlimit="10"/></g><g transform="translate(-158,-222) scale(1,1)"><g><path fill="none" stroke="none"/><text fill="#000000" stroke="none" font-family="Arial" font-size="13px" font-style="normal" font-weight="bold" text-decoration="none" x="553.4091796875" y="443">Lancer une partie</text></g></g><g transform="translate(-158,-222) scale(1,1)"><path fill="#C0C0C0" stroke="none" d="M 791 443 C 791 427.5360256 837.5623808 415 895 415 C 952.4376192 415 999 427.5360256 999 443 C 999 458.4639744 952.4376192 471 895 471 C 837.5623808 471 791 458.4639744 791 443 Z" opacity="0.2"/></g><g transform="translate(-158,-222) scale(1,1)"><path fill="#ffffff" stroke="none" d="M 784 436 C 784 420.5360256 830.5623808 408 888 408 C 945.4376192 408 992 420.5360256 992 436 C 992 451.4639744 945.4376192 464 888 464 C 830.5623808 464 784 451.4639744 784 436 Z"/></g><g transform="translate(-158,-222) scale(1,1)"><path fill="none" stroke="#000000" d="M 784 436 C 784 420.5360256 830.5623808 408 888 408 C 945.4376192 408 992 420.5360256 992 436 C 992 451.4639744 945.4376192 464 888 464 C 830.5623808 464 784 451.4639744 784 436 Z" stroke-miterlimit="10"/></g><g transform="translate(-158,-222) scale(1,1)"><g><path fill="none" stroke="none"/><text fill="#000000" stroke="none" font-family="Arial" font-size="13px" font-style="normal" font-weight="bold" text-decoration="none" x="826.215087890625" y="443">Cliquer afin de sauter</text></g></g><g transform="translate(-158,-222) scale(1,1)"><path fill="#C0C0C0" stroke="none" d="M 367 632 C 367 613.7746016 415.3532416 599 475 599 C 534.6467584 599 583 613.7746016 583 632 C 583 650.2253984 534.6467584 665 475 665 C 415.3532416 665 367 650.2253984 367 632 Z" opacity="0.2"/></g><g transform="translate(-158,-222) scale(1,1)"><path fill="#ffffff" stroke="none" d="M 360 625 C 360 606.7746016 408.3532416 592 468 592 C 527.6467584 592 576 606.7746016 576 625 C 576 643.2253984 527.6467584 658 468 658 C 408.3532416 658 360 643.2253984 360 625 Z"/></g><g transform="translate(-158,-222) scale(1,1)"><path fill="none" stroke="#000000" d="M 360 625 C 360 606.7746016 408.3532416 592 468 592 C 527.6467584 592 576 606.7746016 576 625 C 576 643.2253984 527.6467584 658 468 658 C 408.3532416 658 360 643.2253984 360 625 Z" stroke-miterlimit="10"/></g><g transform="translate(-158,-222) scale(1,1)"><g><path fill="none" stroke="none"/><text fill="#000000" stroke="none" font-family="Arial" font-size="13px" font-style="normal" font-weight="bold" text-decoration="none" x="412.3564453125" y="632">Choisir son pseudo</text></g></g><g transform="translate(-158,-222) scale(1,1)"><path fill="#C0C0C0" stroke="none" d="M 487 784 C 487 765.7746016 550.1278432 751 628 751 C 705.8721568 751 769 765.7746016 769 784 C 769 802.2253984 705.8721568 817 628 817 C 550.1278432 817 487 802.2253984 487 784 Z" opacity="0.2"/></g><g transform="translate(-158,-222) scale(1,1)"><path fill="#ffffff" stroke="none" d="M 480 777 C 480 758.7746016 543.1278432 744 621 744 C 698.8721568 744 762 758.7746016 762 777 C 762 795.2253984 698.8721568 810 621 810 C 543.1278432 810 480 795.2253984 480 777 Z"/></g><g transform="translate(-158,-222) scale(1,1)"><path fill="none" stroke="#000000" d="M 480 777 C 480 758.7746016 543.1278432 744 621 744 C 698.8721568 744 762 758.7746016 762 777 C 762 795.2253984 698.8721568 810 621 810 C 543.1278432 810 480 795.2253984 480 777 Z" stroke-miterlimit="10"/></g><g transform="translate(-158,-222) scale(1,1)"><g><path fill="none" stroke="none"/><text fill="#000000" stroke="none" font-family="Arial" font-size="13px" font-style="normal" font-weight="bold" text-decoration="none" x="538.6328125" y="784">Consulter son meilleur score</text></g></g><g transform="translate(-158,-222) scale(1,1)"><path fill="none" stroke="#000000" d="M 241 628 L 359 626" stroke-miterlimit="10"/></g><g transform="translate(-158,-222) scale(1,1)"><path fill="none" stroke="#000000" d="M 348.9101220755271 630.3811372346954 L 359 626 L 348.76744705029876 621.9633107462228" stroke-miterlimit="10"/></g><g transform="translate(-158,-222) scale(1,1)"><path fill="none" stroke="#000000" d="M 577 473 L 492 591" stroke-miterlimit="10" stroke-dasharray="3"/></g><g transform="translate(-158,-222) scale(1,1)"><path fill="none" stroke="#000000" d="M 494.52432061922144 580.2935624313512 L 492 591 L 501.35555883488246 585.2143696205986" stroke-miterlimit="10"/></g><g transform="translate(-158,-222) scale(1,1)"><g><path fill="none" stroke="none"/><text fill="#000000" stroke="none" font-family="Arial" font-size="13px" font-style="normal" font-weight="normal" text-decoration="none" x="530.5" y="555.5">«include»</text></g></g><g transform="translate(-158,-222) scale(1,1)"><path fill="none" stroke="#000000" d="M 587 743 L 502 659" stroke-miterlimit="10" stroke-dasharray="3"/></g><g transform="translate(-158,-222) scale(1,1)"><path fill="none" stroke="#000000" d="M 512.1874049035924 663.1493109464417 L 502 659 L 506.26957718254283 669.1375889975038" stroke-miterlimit="10"/></g><g transform="translate(-158,-222) scale(1,1)"><g><path fill="none" stroke="none"/><text fill="#000000" stroke="none" font-family="Arial" font-size="13px" font-style="normal" font-weight="normal" text-decoration="none" x="494.5" y="728.5">«include»</text></g></g><g transform="translate(-158,-222) scale(1,1)"><path fill="none" stroke="#000000" d="M 705 436 L 783 436" stroke-miterlimit="10" stroke-dasharray="3"/></g><g transform="translate(-158,-222) scale(1,1)"><path fill="none" stroke="#000000" d="M 772.8373251423759 440.209517756016 L 783 436 L 772.8373251423758 431.790482243984" stroke-miterlimit="10"/></g><g transform="translate(-158,-222) scale(1,1)"><g><path fill="none" stroke="none"/><text fill="#000000" stroke="none" font-family="Arial" font-size="13px" font-style="normal" font-weight="normal" text-decoration="none" x="717.5" y="412.5">«extend»</text></g></g></g></svg>